Coordinates
version=1
nRows=19
nColumns=24
inDegrees=yes

Units are S.I. units (second, meters, Newtons, ...)
Angles are in degrees.

endheader
time	pelvis_tilt	pelvis_list	pelvis_rotation	pelvis_tx	pelvis_ty	pelvis_tz	hip_flexion_r	hip_adduction_r	hip_rotation_r	knee_angle_r	ankle_angle_r	subtalar_angle_r	mtp_angle_r	hip_flexion_l	hip_adduction_l	hip_rotation_l	knee_angle_l	ankle_angle_l	subtalar_angle_l	mtp_angle_l	lumbar_extension	lumbar_bending	lumbar_rotation
      0.46200000	      0.36117884	      5.52348513	      1.47073797	     -0.77489256	      0.97943913	      0.27759049	     27.66277430	     -3.62404805	     -1.20869555	    -17.60862455	     10.67493954	     -5.96236444	      0.36575179	    -15.37694578	      9.44376173	      2.40943300	     -6.29947965	     12.00365520	     -3.22026867	      0.14933284	     -1.20881531	     -3.10851748	     -0.39562569
      0.46616667	      0.33745611	      5.49698363	      1.50130446	     -0.76911719	      0.97878566	      0.27787722	     27.56059540	     -3.55241286	     -1.29019300	    -17.44032294	     10.44451941	     -6.07190640	      0.47641541	    -15.35020091	      9.37624699	      2.32857015	     -7.00258733	     12.12352700	     -3.03278692	      0.09149046	     -1.15618460	     -3.08450568	     -0.49368245
      0.47033333	      0.30255144	      5.46705082	      1.52818406	     -0.76333268	      0.97813807	      0.27817546	     27.47175492	     -3.47273744	     -1.34013455	    -17.35584440	     10.22581720	     -6.17727822	      0.61908162	    -15.26142644	      9.30363789	      2.20772507	     -7.80420907	     12.29188021	     -2.75456739	      0.06130295	     -1.09909842	     -3.03907163	     -0.54755097
      0.47450000	      0.27955174	      5.42121756	      1.54760830	     -0.75749169	      0.97754716	      0.27847504	     27.36500683	     -3.37614969	     -1.39011674	    -17.34191699	      9.97008062	     -6.31646847	      0.77290444	    -15.16299236	      9.21675975	      2.08088418	     -8.64672113	     12.42070620	     -2.52807416	      0.06936031	     -1.04463878	     -2.98064184	     -0.60024352
      0.47866667	      0.26676466	      5.38625428	      1.56658670	     -0.75163695	      0.97701820	      0.27877757	     27.24534111	     -3.29092658	     -1.42507321	    -17.39415686	      9.69373083	     -6.45212043	      0.93874869	    -15.04860202	      9.14076863	      1.97538001	     -9.53913194	     12.49335038	     -2.32141435	      0.11565432	     -1.00261693	     -2.93080951	     -0.64490862
      0.48283333	      0.25195208	      5.34195630	      1.60046273	     -0.74574859	      0.97653471	      0.27902627	     27.12519764	     -3.21105720	     -1.49505034	    -17.51134504	      9.36457425	     -6.53503759	      1.00841253	    -14.91449774	      9.06401159	      1.98614467	    -10.46262352	     12.52224556	     -2.28197475	      0.15467115	     -0.96442875	     -2.85717665	     -0.64771169
      0.48700000	      0.20370669	      5.30107681	      1.61716682	     -0.73985369	      0.97604041	      0.27936586	     27.02396000	     -3.10884999	     -1.44972226	    -17.64663867	      9.04993104	     -6.75976674	      1.16425932	    -14.66377960	      8.97439994	      1.78883112	    -11.53838682	     12.55165007	     -1.96195527	      0.27140991	     -0.86023771	     -2.81785838	     -0.70930552
      0.49116667	      0.19347353	      5.23933644	      1.60709959	     -0.73391322	      0.97562913	      0.27971764	     26.90271058	     -2.98157774	     -1.41909013	    -17.88041155	      8.72708753	     -7.02360915	      1.37921351	    -14.44148629	      8.87042022	      1.59663870	    -12.62747044	     12.52266254	     -1.72173338	      0.47643066	     -0.81639556	     -2.72449462	     -0.73256188
      0.49533333	      0.19113484	      5.18190044	      1.62835793	     -0.72794638	      0.97528108	      0.27998287	     26.76910444	     -2.88836372	     -1.46774974	    -18.15544480	      8.35642733	     -7.11543083	      1.45584156	    -14.22239733	      8.78260645	      1.59133639	    -13.72912703	     12.39593845	     -1.72920345	      0.57190520	     -0.78236928	     -2.62907168	     -0.71081784
      0.49950000	      0.12379620	      5.12882547	      1.64015074	     -0.72200575	      0.97488822	      0.28034030	     26.68318569	     -2.77190217	     -1.37438733	    -18.41435716	      8.01204212	     -7.36592120	      1.59786844	    -13.83611752	      8.67970993	      1.40294113	    -15.00534339	     12.28362052	     -1.48096625	      0.78556777	     -0.64848058	     -2.57018043	     -0.72118072
      0.50366667	      0.14984139	      5.00589673	      1.61972981	     -0.71599687	      0.97464971	      0.28076352	     26.49613920	     -2.56793397	     -1.27787726	    -18.72162602	      7.74836218	     -7.81707090	      1.95776279	    -13.52145940	      8.49081973	      1.11221392	    -16.32135509	     12.10576847	     -1.14268300	      1.41753950	     -0.63960953	     -2.39653132	     -0.70492139
      0.50783333	      0.12804928	      4.94617354	      1.60089036	     -0.71004143	      0.97437128	      0.28112657	     26.38666708	     -2.44485828	     -1.19519527	    -19.07939749	      7.32950739	     -8.07406652	      4.00716995	    -13.13367320	      8.39538875	      0.97958270	    -17.65938257	     11.73823800	     -1.20308709	      5.74404286	     -0.57463390	     -2.30844628	     -0.63801468
      0.51200000	      0.07715989	      4.87793514	      1.60556143	     -0.70407596	      0.97409117	      0.28147608	     26.31291020	     -2.32882375	     -1.16687231	    -19.47949930	      7.01887303	     -8.16326606	      4.01511714	    -12.65299815	      8.27650221	      0.81414509	    -19.11431814	     11.41473046	     -1.07947622	      5.80177768	     -0.46742100	     -2.21457606	     -0.62786726
      0.51616667	      0.08653705	      4.73132162	      1.57633733	     -0.69809816	      0.97393315	      0.28195238	     26.14322386	     -2.09311024	     -1.02304362	    -19.83734627	      6.72687879	     -8.58160442	      4.03649720	    -12.18070271	      8.05398269	      0.52000417	    -20.65887723	     11.06380139	     -0.84129714	      6.13062294	     -0.43974851	     -2.02574905	     -0.57953465
      0.52033333	      0.05125242	      4.62112916	      1.56760605	     -0.69215755	      0.97373144	      0.28238415	     26.04964080	     -1.91535766	     -0.92983506	    -20.26569360	      6.52396310	     -8.86704823	      4.04556024	    -11.61521037	      7.86954031	      0.27944757	    -22.26669737	     10.59074671	     -0.65590973	      6.48224699	     -0.35582657	     -1.88548997	     -0.51322607
      0.52450000	      0.03208642	      4.47857641	      1.54789314	     -0.68622452	      0.97358505	      0.28285299	     25.92720373	     -1.69461112	     -0.81070038	    -20.67690468	      6.30249972	     -9.18185053	      4.04297508	    -11.01978834	      7.64334950	      0.01029063	    -23.94407187	     10.05789502	     -0.49547365	      6.93842022	     -0.29207081	     -1.70510809	     -0.43449567
      0.52866667	      0.00903711	      4.32081187	      1.52517524	     -0.68031483	      0.97344664	      0.28334897	     25.81028359	     -1.45433476	     -0.68206773	    -21.09706029	      6.12132726	     -9.51585794	      4.02421722	    -10.37278785	      7.39033462	     -0.27858187	    -25.68897631	      9.44748941	     -0.33884571	      7.56372723	     -0.22747646	     -1.50971844	     -0.33946700
      0.53283333	     -0.02380064	      4.16981725	      1.48120380	     -0.67443957	      0.97328808	      0.28384750	     25.72711592	     -1.22440612	     -0.58104760	    -21.55425033	      5.90853057	     -9.64716357	      4.00634920	     -9.67628395	      7.15145593	     -0.56121247	    -27.48711856	      8.78018411	     -0.30439023	      7.91565472	     -0.15234729	     -1.31569744	     -0.25604637
      0.53700000	     -0.00398000	      3.95134854	      1.45857984	     -0.66854192	      0.97328572	      0.28438230	     25.53294857	     -0.91459013	     -0.44137862	    -21.92850342	      5.81314424	    -10.01597640	      3.60542273	     -9.00090314	      6.81001597	     -0.86493986	    -29.30772053	      7.88699868	     -0.31289060	     13.27601491	     -0.13758874	     -1.04695035	     -0.14504155
